<?xml version="1.0" encoding="UTF-8"?>
<svg xmlns="http://www.w3.org/2000/svg" width="512" height="512" viewBox="0 0 512 512">
  <defs>
    <linearGradient id="g" x1="0" y1="0" x2="1" y2="1">
      <stop offset="0" stop-color="#3E5F3A"/>
      <stop offset="1" stop-color="#6B4F3A"/>
    </linearGradient>
  </defs>
  <circle cx="256" cy="256" r="220" fill="#F5F2EC" stroke="url(#g)" stroke-width="18"/>
  <path d="M116 330 C182 250, 214 210, 256 170 C298 210, 330 250, 396 330" fill="none" stroke="#3E5F3A" stroke-width="16" stroke-linecap="round"/>
  <path d="M170 336 C208 308, 233 290, 256 280 C279 290, 304 308, 342 336" fill="none" stroke="#6B4F3A" stroke-width="14" stroke-linecap="round"/>
  <path d="M256 170 C232 208, 226 240, 244 270 C252 284, 248 306, 256 322 C264 306, 260 284, 268 270 C286 240, 280 208, 256 170" fill="#3E5F3A" opacity="0.92"/>
  <text x="256" y="410" font-family="Georgia, serif" font-size="34" text-anchor="middle" fill="#122016">Nafas Gunung Cupu</text>
</svg>
